<?xml version="1.0" standalone="no"?><!DOCTYPE svg PUBLIC "-//W3C//DTD SVG 1.1//EN" "http://www.w3.org/Graphics/SVG/1.1/DTD/svg11.dtd"><svg t="1746205394615" class="icon" viewBox="0 0 1024 1024" version="1.1" xmlns="http://www.w3.org/2000/svg" p-id="11444" data-spm-anchor-id="a313x.search_index.0.i2.17e43a81VICsum" xmlns:xlink="http://www.w3.org/1999/xlink" width="200" height="200"><path d="M193.320185 427.14357H84.816911a30.47251 30.47251 0 1 0 0 60.945021h105.685007v-17.614168a348.584382 348.584382 0 0 1 2.818267-43.330853zM265.714415 254.172442a321.634705 321.634705 0 0 1 41.921719-44.211561l-75.740922-75.917064a30.47251 30.47251 0 0 0-43.154711 43.154712zM512.312764 132.106259a272.491177 272.491177 0 0 1 29.591802 1.761417V30.47251a30.47251 30.47251 0 1 0-60.94502 0V133.867676a272.491177 272.491177 0 0 1 29.591802-1.761417zM758.911114 254.172442l76.973914-76.973913a30.47251 30.47251 0 0 0-43.506995-43.154712l-75.917063 75.917064A322.867697 322.867697 0 0 1 758.911114 254.172442zM774.587724 677.088612zM939.104051 427.14357h-108.503274a348.760523 348.760523 0 0 1 2.818267 43.330853v17.614168h105.685007a30.47251 30.47251 0 1 0 0-60.945021zM589.638961 892.157601h-155.35696a29.239519 29.239519 0 1 0 0 58.302896h155.35696a29.239519 29.239519 0 0 0 0-58.302896zM589.638961 965.608681h-155.35696a29.239519 29.239519 0 1 0 0 58.302896h155.35696a29.239519 29.239519 0 0 0 0-58.302896zM299.709759 573.341163a249.416617 249.416617 0 0 1-19.727868-102.86674 230.393315 230.393315 0 0 1 47.029828-140.032634 233.916149 233.916149 0 0 1 118.895633-82.786589l5.812675-1.761417a261.570393 261.570393 0 0 1 35.228336-6.693384h2.289842c7.221809 0 14.091334-1.05685 20.960859-1.232991h2.465984c6.869525 0 13.739051 0 20.96086 1.05685h2.289841a259.104409 259.104409 0 0 1 35.228336 6.693383l5.988817 1.761417a233.916149 233.916149 0 0 1 118.895633 82.786589 231.274024 231.274024 0 0 1 46.853687 140.913343 259.280551 259.280551 0 0 1-16.557318 96.173356c-1.05685 2.289842-2.1137 4.403542-2.994409 6.693384h50.728804a313.532188 313.532188 0 0 0 16.205034-102.86674 277.775427 277.775427 0 0 0-56.541479-168.567586 281.826686 281.826686 0 0 0-122.418466-92.474382v-1.232991l-20.784718-6.164959a284.468811 284.468811 0 0 0-50.200379-9.863934h-1.585275a247.6552 247.6552 0 0 0-26.421252-2.289842h-1.409133a251.178033 251.178033 0 0 0-26.24511 1.409134h-2.289842a279.360702 279.360702 0 0 0-50.024237 9.863934l-20.256293 5.812675v1.409133a279.889127 279.889127 0 0 0-179.664512 261.218109 308.424079 308.424079 0 0 0 16.557318 102.866741z" fill="#f4ea2a" p-id="11445" data-spm-anchor-id="a313x.search_index.0.i0.17e43a81VICsum" class=""></path><path d="M67.026601 726.055999a122.066183 122.066183 0 0 1 25.364402-82.434306 88.070839 88.070839 0 0 1 70.456671-29.591802 89.656114 89.656114 0 0 1 71.689664 29.063377 119.776341 119.776341 0 0 1 25.012118 81.201314 150.777277 150.777277 0 0 1-11.449209 62.178012 86.661706 86.661706 0 0 1-31.705502 37.69432 93.531231 93.531231 0 0 1-51.785654 13.562909 105.685007 105.685007 0 0 1-52.842503-11.801493 84.195722 84.195722 0 0 1-31.881644-36.813611 137.214368 137.214368 0 0 1-12.858343-63.05872z m57.422188 0a80.672889 80.672889 0 0 0 10.5685 47.029828 32.938494 32.938494 0 0 0 28.35881 14.443617 33.114636 33.114636 0 0 0 28.711094-14.091334 88.951548 88.951548 0 0 0 10.216217-50.200378 75.388638 75.388638 0 0 0-10.5685-44.739987 35.228336 35.228336 0 0 0-28.711094-14.091334 33.114636 33.114636 0 0 0-28.006527 14.267476 81.90588 81.90588 0 0 0-10.216217 47.558253zM287.379841 677.264754H336.171086v25.540543a77.854622 77.854622 0 0 1 21.841568-22.369993 51.785653 51.785653 0 0 1 26.949677-6.693384 40.864869 40.864869 0 0 1 33.466919 14.795901 71.513521 71.513521 0 0 1 12.153776 45.796836v99.69619h-52.666362v-86.13328a36.461327 36.461327 0 0 0-4.579684-20.96086 15.852751 15.852751 0 0 0-13.210626-6.164959 17.614168 17.614168 0 0 0-15.324326 8.278659 54.780062 54.780062 0 0 0-5.812675 29.767944v75.212496h-51.609512zM462.464669 617.728866h51.785654v216.301981h-51.785654zM549.126375 617.728866H600.383604v40.86487h-51.257229z m0 59.535888H600.383604v156.766093h-51.257229zM633.850523 677.264754h48.086678v25.540543a77.854622 77.854622 0 0 1 21.841568-22.369993 51.785653 51.785653 0 0 1 26.949677-6.693384 40.864869 40.864869 0 0 1 33.466919 14.795901 71.513521 71.513521 0 0 1 12.153775 45.796836v99.69619H723.682779v-86.13328a36.461327 36.461327 0 0 0-4.579684-20.96086 15.852751 15.852751 0 0 0-13.210626-6.164959 17.614168 17.614168 0 0 0-15.324326 8.278659 54.780062 54.780062 0 0 0-5.812675 29.767944v75.212496H633.850523zM956.894361 770.619843h-103.571307a42.97857 42.97857 0 0 0 6.693384 22.01771 23.250702 23.250702 0 0 0 19.551726 10.216217 25.892827 25.892827 0 0 0 14.443618-4.579683 33.466919 33.466919 0 0 0 8.983225-9.863934l50.904945 5.460392a77.67848 77.67848 0 0 1-28.182668 33.995344 89.656114 89.656114 0 0 1-47.382112 10.392359 85.604856 85.604856 0 0 1-42.097861-8.807084A66.581554 66.581554 0 0 1 811.753618 800.916212a95.997215 95.997215 0 0 1-10.216217-44.916128 86.837847 86.837847 0 0 1 20.256293-59.535887 71.33738 71.33738 0 0 1 56.013053-22.722277 86.661706 86.661706 0 0 1 45.620695 10.216217 63.411004 63.411004 0 0 1 25.540543 29.415661 124.179883 124.179883 0 0 1 8.807084 50.37652z m-52.842504-28.887235a43.330853 43.330853 0 0 0-7.926375-24.835977 21.665426 21.665426 0 0 0-17.614168-7.574092 22.369993 22.369993 0 0 0-19.727868 11.273068 48.791245 48.791245 0 0 0-5.988817 21.137001z" fill="#000000" p-id="11446" data-spm-anchor-id="a313x.search_index.0.i3.17e43a81VICsum" class="selected"></path></svg>